<svg width="28" height="29" viewBox="0 0 28 29" fill="none" xmlns="http://www.w3.org/2000/svg">
<path d="M14 28.8501C21.732 28.8501 28 22.5821 28 14.8501C28 7.11811 21.732 0.850098 14 0.850098C6.26801 0.850098 0 7.11811 0 14.8501C0 22.5821 6.26801 28.8501 14 28.8501Z" fill="#4067FF"/>
<path d="M14.4352 4.3501V12.1113L20.9951 15.0426L14.4352 4.3501Z" fill="white" fill-opacity="0.602"/>
<path d="M14.4357 4.3501L7.875 15.0426L14.4357 12.1113V4.3501Z" fill="white"/>
<path d="M14.4352 20.0719V25.3456L20.9994 16.2639L14.4352 20.0719Z" fill="white" fill-opacity="0.602"/>
<path d="M14.4357 25.346V20.0715L7.875 16.2644L14.4357 25.346Z" fill="white"/>
<path d="M14.4352 18.8518L20.9951 15.043L14.4352 12.1135V18.8518Z" fill="white" fill-opacity="0.2"/>
<path d="M7.875 15.043L14.4357 18.8518V12.1135L7.875 15.043Z" fill="white" fill-opacity="0.602"/>
</svg>
